<svg width="38" height="32" viewBox="0 0 38 32" fill="none" xmlns="http://www.w3.org/2000/svg">
<path d="M11.72 14C10.8925 14 10.2384 14.4783 9.81576 15.0205C9.48561 15.4441 9.27212 15.8918 9.19222 16.3241C9.03837 16.4647 8.90089 16.6221 8.78229 16.7925C8.31585 17.463 8.10239 18.3119 8.10239 19.1556C8.10239 19.2471 8.1155 19.3379 8.12057 19.4293H8.10239V20.6189C8.10239 21.0945 7.91332 21.5468 7.57975 21.8712C6.92532 22.5067 6 23.5719 6 24.9222C6 26.7477 7.24995 28.5146 9.27494 29.8222C11.2999 31.1298 14.1388 32 17.5 32C20.8612 32 23.7001 31.1297 25.7251 29.8222C27.75 28.5147 29 26.7474 29 24.9222C29 23.5722 28.0747 22.5077 27.4202 21.8721V21.8712C27.0865 21.546 26.8976 21.0958 26.8976 20.6198V19.4302H26.8867C26.8925 19.3392 26.8976 19.2481 26.8976 19.1556C26.8976 18.0564 26.4815 17.0477 25.816 16.3963C25.7482 15.9417 25.533 15.4679 25.1842 15.0205C24.7616 14.4783 24.1075 14 23.28 14C22.1293 14 21.255 14.6265 20.3959 15.1687C19.5368 15.711 18.6894 16.1968 17.5 16.1968C16.3106 16.1968 15.4632 15.711 14.6041 15.1687C13.745 14.6265 12.8707 14 11.72 14ZM11.72 14.973C12.5398 14.973 13.242 15.4448 14.1233 16.0011C15.0046 16.5573 16.0624 17.1698 17.5 17.1698C18.9376 17.1698 19.9954 16.5573 20.8767 16.0011C21.758 15.4448 22.4602 14.973 23.28 14.973C23.7663 14.973 24.1627 15.2506 24.4625 15.6352C24.4765 15.6531 24.4856 15.6738 24.4989 15.6923C24.3584 15.666 24.2158 15.6476 24.0681 15.6476C23.1377 15.6476 22.3848 16.1221 21.9184 16.7925C21.452 17.463 21.2376 18.3119 21.2376 19.1556C21.2376 19.9993 21.452 20.8483 21.9184 21.5187C22.3848 22.1891 23.1377 22.6627 24.0681 22.6627C24.8992 22.6627 25.623 22.2301 26.1314 21.5548C26.2697 21.9421 26.4905 22.2963 26.7858 22.5838L26.7867 22.5848C27.3628 23.1441 28.0692 24.0755 28.0692 24.9222C28.0692 26.2703 27.0853 27.8 25.2351 28.9946C23.385 30.1892 20.7067 31.027 17.5 31.027C14.2933 31.027 11.615 30.1883 9.76486 28.9937C7.91473 27.799 6.93076 26.2706 6.93076 24.9222C6.93076 24.0755 7.63725 23.1432 8.21329 22.5838H8.2142C8.49686 22.3089 8.71116 21.9729 8.85046 21.6052C9.32031 22.228 10.0434 22.6627 10.9319 22.6627C12.5453 22.6627 13.7624 21.0392 13.7624 19.1556C13.7624 17.272 12.5453 15.6476 10.9319 15.6476C10.7842 15.6476 10.6431 15.6637 10.5047 15.6865C10.5168 15.67 10.5249 15.6513 10.5375 15.6352C10.8373 15.2506 11.2337 14.973 11.72 14.973ZM10.9319 16.6206C11.9305 16.6206 12.8316 17.7022 12.8316 19.1556C12.8316 20.609 11.9305 21.6897 10.9319 21.6897C10.2859 21.6897 9.85666 21.4082 9.5349 20.9457C9.21313 20.4833 9.03316 19.8224 9.03316 19.1556C9.03316 18.4888 9.21313 17.827 9.5349 17.3645C9.85666 16.9021 10.2859 16.6206 10.9319 16.6206ZM24.0681 16.6206C25.0666 16.6206 25.9668 17.7022 25.9668 19.1556C25.9668 20.609 25.0666 21.6897 24.0681 21.6897C23.4221 21.6897 22.9928 21.4082 22.671 20.9457C22.3492 20.4833 22.1684 19.8224 22.1684 19.1556C22.1684 18.4888 22.3492 17.827 22.671 17.3645C22.9928 16.9021 23.4221 16.6206 24.0681 16.6206ZM10.9319 18.3309C10.4441 18.3309 9.97617 18.4177 9.63119 18.5723C9.28621 18.7269 9.0924 18.9365 9.0924 19.1551C9.0924 19.3738 9.28621 19.5834 9.63119 19.738C9.97617 19.8926 10.4441 19.9794 10.9319 19.9794C11.4198 19.9794 11.8877 19.8926 12.2327 19.738C12.5777 19.5834 12.7715 19.3738 12.7715 19.1551C12.7715 18.9365 12.5777 18.7269 12.2327 18.5723C11.8877 18.4177 11.4198 18.3309 10.9319 18.3309ZM24.0681 18.3309C23.5802 18.3309 23.1123 18.4177 22.7673 18.5723C22.4223 18.7269 22.2285 18.9365 22.2285 19.1551C22.2285 19.3738 22.4223 19.5834 22.7673 19.738C23.1123 19.8926 23.5802 19.9794 24.0681 19.9794C24.5559 19.9794 25.0238 19.8926 25.3688 19.738C25.7138 19.5834 25.9076 19.3738 25.9076 19.1551C25.9076 18.9365 25.7138 18.7269 25.3688 18.5723C25.0238 18.4177 24.5559 18.3309 24.0681 18.3309ZM15.6612 21.0778C15.5568 21.0759 15.4532 21.103 15.3564 21.1573C15.2596 21.2117 15.1715 21.2923 15.0972 21.3945C15.0229 21.4966 14.9639 21.6184 14.9237 21.7526C14.8834 21.8868 14.8627 22.0308 14.8627 22.1762C14.8627 22.3217 14.8834 22.4656 14.9237 22.5998C14.9639 22.734 15.0229 22.8558 15.0972 22.9579C15.1715 23.0601 15.2596 23.1407 15.3564 23.1951C15.4532 23.2494 15.5568 23.2765 15.6612 23.2746C15.7656 23.2765 15.8692 23.2494 15.966 23.1951C16.0628 23.1407 16.1509 23.0601 16.2252 22.9579C16.2995 22.8558 16.3585 22.734 16.3987 22.5998C16.439 22.4656 16.4597 22.3217 16.4597 22.1762C16.4597 22.0308 16.439 21.8868 16.3987 21.7526C16.3585 21.6184 16.2995 21.4966 16.2252 21.3945C16.1509 21.2923 16.0628 21.2117 15.966 21.1573C15.8692 21.103 15.7656 21.0759 15.6612 21.0778ZM19.3388 21.0778C19.2344 21.0759 19.1308 21.103 19.034 21.1573C18.9372 21.2117 18.8491 21.2923 18.7748 21.3945C18.7005 21.4966 18.6415 21.6184 18.6013 21.7526C18.561 21.8868 18.5403 22.0308 18.5403 22.1762C18.5403 22.3217 18.561 22.4656 18.6013 22.5998C18.6415 22.734 18.7005 22.8558 18.7748 22.9579C18.8491 23.0601 18.9372 23.1407 19.034 23.1951C19.1308 23.2494 19.2344 23.2765 19.3388 23.2746C19.4432 23.2765 19.5468 23.2494 19.6436 23.1951C19.7404 23.1407 19.8285 23.0601 19.9028 22.9579C19.9771 22.8558 20.0361 22.734 20.0763 22.5998C20.1166 22.4656 20.1373 22.3217 20.1373 22.1762C20.1373 22.0308 20.1166 21.8868 20.0763 21.7526C20.0361 21.6184 19.9771 21.4966 19.9028 21.3945C19.8285 21.2923 19.7404 21.2117 19.6436 21.1573C19.5468 21.103 19.4432 21.0759 19.3388 21.0778ZM10.5193 25.6757C10.4576 25.6748 10.3964 25.6867 10.3392 25.7107C10.2819 25.7348 10.2299 25.7704 10.1859 25.8157C10.142 25.861 10.1071 25.9149 10.0833 25.9744C10.0595 26.0339 10.0473 26.0977 10.0473 26.1622C10.0473 26.2266 10.0595 26.2905 10.0833 26.3499C10.1071 26.4094 10.142 26.4634 10.1859 26.5086C10.2299 26.5539 10.2819 26.5896 10.3392 26.6136C10.3964 26.6377 10.4576 26.6496 10.5193 26.6486H24.4807C24.5424 26.6496 24.6036 26.6377 24.6608 26.6136C24.7181 26.5896 24.7701 26.5539 24.8141 26.5086C24.858 26.4634 24.8929 26.4094 24.9167 26.3499C24.9405 26.2905 24.9527 26.2266 24.9527 26.1622C24.9527 26.0977 24.9405 26.0339 24.9167 25.9744C24.8929 25.9149 24.858 25.861 24.8141 25.8157C24.7701 25.7704 24.7181 25.7348 24.6608 25.7107C24.6036 25.6867 24.5424 25.6748 24.4807 25.6757H10.5193ZM14.7077 27.6216C14.646 27.6207 14.5848 27.6326 14.5276 27.6567C14.4704 27.6807 14.4183 27.7164 14.3744 27.7617C14.3304 27.8069 14.2956 27.8609 14.2718 27.9203C14.248 27.9798 14.2357 28.0436 14.2357 28.1081C14.2357 28.1726 14.248 28.2364 14.2718 28.2959C14.2956 28.3554 14.3304 28.4093 14.3744 28.4546C14.4183 28.4998 14.4704 28.5355 14.5276 28.5596C14.5848 28.5836 14.646 28.5955 14.7077 28.5946H20.2923C20.354 28.5955 20.4152 28.5836 20.4724 28.5596C20.5296 28.5355 20.5817 28.4998 20.6256 28.4546C20.6696 28.4093 20.7044 28.3554 20.7282 28.2959C20.752 28.2364 20.7643 28.1726 20.7643 28.1081C20.7643 28.0436 20.752 27.9798 20.7282 27.9203C20.7044 27.8609 20.6696 27.8069 20.6256 27.7617C20.5817 27.7164 20.5296 27.6807 20.4724 27.6567C20.4152 27.6326 20.354 27.6207 20.2923 27.6216H14.7077Z" fill="white"/>
<path d="M11.0398 3C11.2673 3 11.4819 3.11434 11.617 3.25493C11.752 3.39552 11.8371 3.54548 11.8981 3.70481C12.0202 4.02534 12.0591 4.37775 12.0905 4.72453C12.1053 4.89323 12.1146 5.06194 12.1201 5.21939C12.5456 4.88573 12.9673 4.61956 13.3632 4.42461C14.0088 4.10595 14.56 3.95974 15.0058 3.95974C15.2537 3.95974 15.5571 3.97848 15.805 4.21467C16.0529 4.45085 16.1009 4.77327 16.1009 5.11442C16.1009 6.42281 15.768 8.18483 15.1538 9.91311C14.597 11.4783 13.772 12.9498 12.7269 14.022C13.9477 15.306 14.2659 16.7737 14.6655 18.0109C15.1002 19.3568 15.6163 20.4477 17.6992 21.265C17.9452 21.3644 18.0636 21.6455 17.9656 21.8948C17.8675 22.1441 17.5901 22.2641 17.344 22.1648C15.0225 21.2538 14.2271 19.7485 13.7628 18.3108C13.2985 16.8731 13.0876 15.5384 11.8093 14.3969C11.7076 14.305 11.6484 14.1738 11.6484 14.037C11.6484 13.9001 11.7076 13.7689 11.8093 13.6771C12.8212 12.783 13.6851 11.229 14.2659 9.5982C14.8468 7.96739 15.1538 6.25411 15.1538 5.11442C15.1538 5.0132 15.1446 4.96821 15.139 4.93447C15.1131 4.9326 15.078 4.91948 15.0058 4.91948C14.8116 4.91948 14.327 5.02257 13.7776 5.29437C13.2282 5.56617 12.5974 5.99356 12.0017 6.61401C10.8104 7.85492 9.75232 9.85875 9.75232 12.9873C9.75232 13.2516 9.53959 13.4671 9.27876 13.4671C5.70119 13.4671 3.65527 14.7587 2.45658 16.0914C1.85723 16.7569 1.47432 17.4336 1.24309 17.9659C1.1284 18.2321 1.05255 18.472 1.00631 18.6407C0.971162 18.7663 0.952664 18.8788 0.947114 18.8957C0.950814 19.0737 1.01001 19.1112 1.1395 19.1806C1.27268 19.2518 1.42067 19.2706 1.42067 19.2706C1.62045 19.2893 1.78509 19.4336 1.83503 19.6305C2.25125 21.2256 2.8247 21.7974 3.44809 22.0448C4.07148 22.2922 4.86321 22.1779 5.69749 22.0898C6.53176 22.0017 7.46778 21.9398 8.19846 22.5846C8.92915 23.2295 9.27876 24.4066 9.27876 26.5136C9.28061 26.686 9.19182 26.8472 9.04383 26.9353C8.89585 27.0216 8.71456 27.0216 8.56658 26.9353C8.41859 26.8472 8.3298 26.686 8.33165 26.5136C8.33165 24.5191 7.96723 23.6475 7.57692 23.3044C7.1866 22.9614 6.60575 22.9633 5.80108 23.0495C4.9964 23.1357 4.04189 23.2988 3.10772 22.9296C2.2346 22.5846 1.50576 21.6886 1.03591 20.1403C0.917517 20.1141 0.869421 20.1272 0.695537 20.0353C0.379215 19.8666 -4.45264e-07 19.4543 -4.45265e-07 18.8807C-4.45265e-07 18.6932 0.0295969 18.5845 0.0887915 18.3708C0.147986 18.1571 0.251577 17.8984 0.384765 17.591C0.651141 16.9762 1.08215 16.202 1.76104 15.4466C2.90054 14.1794 4.75962 12.9929 7.57692 12.6424C7.61206 8.959 8.19106 6.60277 8.8792 5.14441C9.23437 4.39274 9.62653 3.88101 9.9891 3.53985C10.3517 3.1987 10.655 3 11.0398 3ZM10.9806 4.00473C10.9751 4.01785 10.8419 4.02534 10.6254 4.22966C10.3702 4.4696 10.0501 4.90073 9.73752 5.5643C9.13448 6.83895 8.58138 9.03585 8.53883 12.5674C8.64242 12.5618 8.74416 12.5561 8.8496 12.5524C8.94764 9.57945 9.9521 7.47253 11.173 6.11915C11.1711 6.09478 11.1711 6.06854 11.173 6.04417C11.173 6.04417 11.2137 5.41621 11.1582 4.8145C11.1304 4.51459 11.0731 4.23154 11.0102 4.06471C10.9973 4.02909 10.9917 4.02722 10.9806 4.00473ZM6.15625 15.9565C6.67975 15.9565 7.10336 16.3857 7.10336 16.9162C7.10336 17.4467 6.67975 17.8759 6.15625 17.8759C5.63274 17.8759 5.20913 17.4467 5.20913 16.9162C5.20913 16.3857 5.63274 15.9565 6.15625 15.9565Z" fill="white" fill-opacity="0.7"/>
<path d="M33.1072 0.00206044C32.9895 -0.00273704 32.8717 0.000653099 32.7545 0.0142341C32.52 0.041396 32.2888 0.10799 32.0708 0.222122C31.635 0.450386 31.2762 0.879281 31.0941 1.46102C31.0921 1.46692 31.0903 1.47285 31.0887 1.47881C30.713 2.85419 29.2173 4.11085 27.5098 5.27885C25.8429 6.41914 24.0447 7.46177 23.0038 8.75021C22.9858 8.74896 22.9887 8.74963 22.9705 8.74833C22.4052 8.70766 21.7312 8.62669 21.4246 8.53576C19.7945 7.72543 18.4311 7.95498 17.5824 8.75863C16.7697 9.52813 16.4507 10.7 16.4586 11.7983C16.3796 11.9939 16.0439 12.3613 15.6911 12.9108C15.3353 13.4648 15.0017 14.2406 15.0011 15.3193C14.9776 17.2081 15.3276 19.3305 16.308 21.0334C17.289 22.7373 18.9621 24 21.3741 24C26.0628 24 27.8589 20.5889 29.3101 19.1708C29.3116 19.1693 29.3131 19.1677 29.3146 19.1661C29.977 18.4992 31.2067 17.9084 32.4803 17.3925C33.754 16.8766 35.0599 16.4302 35.968 15.8802C35.9689 15.8796 35.9698 15.879 35.9707 15.8783C36.7766 15.3815 37.4207 14.6982 37.7556 13.8566C38.0906 13.0149 38.0945 12.0239 37.6844 11.0126C37.6528 10.9346 37.6019 10.8666 37.5367 10.8156C37.4716 10.7646 37.3947 10.7324 37.3137 10.7223C36.9122 10.6727 36.5417 10.7199 36.198 10.8235C36.08 10.7065 35.9467 10.5828 35.7813 10.4798C35.591 10.5193 35.6235 10.6682 35.7173 11.0108C35.3539 11.1891 35.03 11.426 34.7423 11.6756C34.6128 11.5615 34.4646 11.4423 34.304 11.3423C34.1513 11.4215 34.2048 11.6392 34.3004 12.0933C34.0745 12.3188 33.8635 12.5398 33.6826 12.7235C33.5653 12.8426 33.458 12.9406 33.3633 13.0203C33.2263 12.8518 33.0583 12.6656 32.8258 12.4931C32.5638 12.5385 32.6339 12.7279 32.7202 13.3546C32.243 13.538 31.8096 13.6723 31.3971 13.7704C31.2821 13.6712 31.1572 13.5546 31.0255 13.452C30.8285 13.4929 30.8343 13.6137 30.8686 13.8837C30.6309 13.9295 30.3851 13.968 30.1407 14.0073C30.0113 13.8522 29.7949 13.5821 29.4553 13.3078C29.1974 13.3524 29.2609 13.5401 29.3452 14.1431C29.0981 14.1842 28.8609 14.2208 28.584 14.2752C28.5816 14.2758 28.5792 14.2764 28.5768 14.277C28.4487 14.3044 28.3348 14.3373 28.2124 14.3669L28.1159 14.2667C27.9982 14.2973 27.9582 14.3515 27.9428 14.4334C25.9063 14.9681 24.6613 15.7857 23.646 16.3419C22.9922 16.7001 22.4375 16.9334 21.7772 16.9871C22.5377 16.5161 23.1667 15.9251 23.6911 15.3436C24.442 14.511 25.0527 13.7537 25.6113 13.4108C25.827 13.8237 25.8832 14.0027 26.0839 13.836C26.1468 13.5749 26.1684 13.3502 26.1894 13.1486C26.5845 12.9843 26.9644 12.8046 27.3267 12.6092C27.5646 13.0528 27.6389 13.2385 27.885 13.0681C27.9551 12.7769 27.9899 12.4766 28.0068 12.2141C28.4605 11.9298 28.8838 11.6236 29.2722 11.2982C29.4646 11.7049 29.5388 11.8441 29.7782 11.6784C29.8466 11.3232 29.8813 11.0092 29.899 10.7261C30.2388 10.3912 30.5443 10.0422 30.8145 9.68383C31.3492 10.2079 31.4977 10.4641 31.7182 10.1436C31.6836 9.46077 31.5467 8.95122 31.4666 8.67904C31.601 8.43193 31.7201 8.18273 31.8201 7.9327C31.8896 7.76142 31.9914 7.60471 32.1168 7.45419C32.5483 7.96066 32.6558 8.20849 32.8727 7.93832C32.9087 7.48867 32.8599 7.10383 32.8149 6.8043C33.0551 6.60894 33.3156 6.3976 33.5933 6.16472C33.941 6.57956 34.0516 6.76199 34.258 6.54772C34.2945 6.16876 34.2687 5.84179 34.2355 5.57008C34.4773 5.31294 34.7056 5.01548 34.9101 4.67392C35.0706 4.89911 35.165 4.98234 35.3196 4.82188C35.3452 4.47516 35.3165 4.16942 35.2835 3.92665C35.5023 3.36877 35.6514 2.70984 35.6884 1.92081C35.6921 1.84523 35.6785 1.76982 35.6488 1.70075C35.2648 0.811335 34.3833 0.205343 33.458 0.0404542C33.3423 0.019843 33.2248 0.00685792 33.1072 0.00206044ZM33.0747 0.96003C33.1485 0.962908 33.2242 0.971464 33.302 0.985314C33.892 1.09047 34.4975 1.54785 34.745 2.02194C34.6269 3.74959 33.9877 4.57085 33.2199 5.24795C32.4277 5.94649 31.4211 6.44533 30.9687 7.56094L30.9678 7.56281C30.2483 9.36444 28.3142 11.3154 25.5581 12.3779C24.5252 12.7652 23.8449 13.7694 23.0165 14.6881C22.188 15.6068 21.2593 16.4648 19.8913 16.7707C19.7909 16.7932 19.7006 16.8498 19.6346 16.9315C19.5686 17.0133 19.5308 17.1155 19.527 17.2221C19.5233 17.3287 19.5539 17.4335 19.614 17.52C19.6741 17.6065 19.7603 17.6697 19.8588 17.6997C21.6925 18.2581 22.8977 17.8364 24.0771 17.1903C25.2566 16.5441 26.4803 15.7043 28.7635 15.2163C30.4321 14.8892 31.6038 14.879 33.4634 14.0869C33.4646 14.0866 33.4658 14.0863 33.467 14.086C33.8052 13.9382 34.0563 13.6852 34.3284 13.409C34.6004 13.1327 34.8814 12.8243 35.1825 12.5456C35.7021 12.0644 36.264 11.7573 36.9087 11.7271C37.1007 12.3838 37.107 12.9741 36.9015 13.4904C36.6596 14.0982 36.173 14.6375 35.5027 15.0515H35.5017C34.7474 15.5082 33.4453 15.9724 32.1448 16.4992C30.8455 17.0255 29.5366 17.6094 28.6751 18.4751C26.987 20.1258 25.6424 23.0411 21.3741 23.0411C19.2605 23.0411 17.9554 22.0262 17.1008 20.5418C16.2462 19.0573 15.9024 17.0828 15.9247 15.3286C15.9247 15.3265 15.9247 15.3243 15.9247 15.3221C15.9247 14.4367 16.1691 13.8949 16.4595 13.4427C16.7499 12.9904 17.1213 12.6689 17.3235 12.1438C17.348 12.0802 17.3591 12.0119 17.356 11.9434C17.3152 11.0327 17.6212 10.02 18.2047 9.46751C18.7882 8.91498 19.6411 8.68904 21.0773 9.4235C21.1011 9.43568 21.1259 9.4457 21.1513 9.45347C21.6346 9.60105 22.3119 9.66258 22.9064 9.70537C23.501 9.74815 23.995 9.75968 23.995 9.75968C24.0961 9.76346 24.1956 9.73268 24.2782 9.67208C24.3608 9.61148 24.4219 9.52441 24.4522 9.42423C24.4826 9.32406 24.4804 9.21632 24.446 9.11756C24.4116 9.0188 24.347 8.93449 24.262 8.87756C25.2008 7.98421 26.5724 7.06814 28.0176 6.0795C29.762 4.8862 31.4753 3.57704 31.977 1.74008L31.9725 1.75787C32.0906 1.3807 32.2682 1.19287 32.4875 1.07802C32.652 0.991887 32.8533 0.951397 33.0747 0.96003ZM33.0449 1.6071C32.7046 1.67134 32.4569 2.18488 32.4569 2.18488C32.226 2.5205 32.5956 2.80855 33.1035 2.56882C33.5653 2.37704 33.9342 1.99291 33.9342 1.99291C33.9342 1.99291 33.6111 1.7058 33.1955 1.60991C33.1436 1.59793 33.0935 1.59793 33.0449 1.6071ZM19.8417 9.90015C19.5806 9.88357 19.2726 9.92224 18.9263 10.0481C18.2798 10.2878 18.1414 11.5338 18.4185 11.8695C18.6032 12.1571 19.0652 12.3015 19.5269 12.2056C19.7116 12.1577 19.0192 10.5276 19.0192 10.5276C19.0192 10.5276 19.8042 10.8154 20.4045 11.4387C20.5892 11.0072 20.8197 10.4317 20.7274 10.2878C20.5831 10.108 20.2769 9.92777 19.8417 9.90015Z" fill="white" fill-opacity="0.4"/>
</svg>
