<svg width="34" height="34" viewBox="0 0 34 34" fill="none" xmlns="http://www.w3.org/2000/svg">
<path d="M26.6732 25.8975H6.78868C5.78973 25.8975 4.97705 25.0848 4.97705 24.0859V10.3201C4.97705 9.3211 5.78973 8.50842 6.78868 8.50842H26.6732C27.6722 8.50842 28.4849 9.3211 28.4849 10.3201V24.0859C28.4849 25.0848 27.6722 25.8975 26.6732 25.8975ZM6.78868 9.83648C6.52657 9.83648 6.30518 10.0579 6.30518 10.32V24.0858C6.30518 24.3479 6.52657 24.5693 6.78868 24.5693H26.6732C26.9353 24.5693 27.1567 24.3479 27.1567 24.0858V10.3201C27.1567 10.0579 26.9353 9.83655 26.6732 9.83655L6.78868 9.83648Z" fill="white"/>
<path d="M27.355 25.6631C27.1217 25.6631 26.8954 25.54 26.774 25.3215L21.7303 16.2464L17.1528 22.6486C17.0473 22.7963 16.8858 22.8942 16.7061 22.9198C16.5262 22.9453 16.3441 22.8962 16.2015 22.7839L12.2162 19.6422L6.40871 25.3344C6.1468 25.591 5.72638 25.587 5.46959 25.325C5.21286 25.0631 5.21712 24.6426 5.47902 24.3858L11.7037 18.2848C11.9423 18.051 12.3173 18.0308 12.5796 18.2375L16.4772 21.31L21.2604 14.6199C21.3928 14.4347 21.6099 14.3305 21.8383 14.3431C22.0656 14.356 22.2704 14.4845 22.3811 14.6835L27.9348 24.6762C28.113 24.9968 27.9975 25.4011 27.677 25.5794C27.5748 25.6361 27.4641 25.6631 27.355 25.6631Z" fill="white"/>
<path d="M15.2052 16.5984C13.5582 16.5984 12.2183 15.2584 12.2183 13.6114C12.2183 11.9644 13.5582 10.6245 15.2052 10.6245C16.8536 10.6245 18.1947 11.9644 18.1947 13.6114C18.1947 15.2584 16.8536 16.5984 15.2052 16.5984ZM15.2052 11.9526C14.2905 11.9526 13.5464 12.6968 13.5464 13.6114C13.5464 14.5261 14.2905 15.2703 15.2052 15.2703C16.1213 15.2703 16.8666 14.5261 16.8666 13.6114C16.8666 12.6968 16.1213 11.9526 15.2052 11.9526Z" fill="white"/>
<path d="M27.8418 29.1766H5.75955C3.71423 29.1766 2.05029 27.5134 2.05029 25.4693V8.73867C2.05029 6.69336 3.71423 5.02942 5.75955 5.02942H27.8418C29.8871 5.02942 31.551 6.69336 31.551 8.73867V25.4693C31.551 27.5134 29.8871 29.1766 27.8418 29.1766ZM5.75955 6.35276C4.44391 6.35276 3.37364 7.4231 3.37364 8.73867V25.4693C3.37364 26.7838 4.44397 27.8533 5.75955 27.8533H27.8418C29.1575 27.8533 30.2277 26.7838 30.2277 25.4693V8.73867C30.2277 7.42303 29.1575 6.35276 27.8418 6.35276H5.75955Z" fill="white"/>
</svg>
