<svg width="134" height="112" viewBox="0 0 134 112" fill="none" xmlns="http://www.w3.org/2000/svg">
<path d="M91.4236 0L89.406 0.975877C92.6955 14.12 81.5823 17.8192 81.5823 17.8192C86.0169 22.0177 87.6112 27.2148 87.6112 27.2148C87.6112 27.2148 96 20.5322 96 12.7024C96 4.87249 91.4236 0 91.4236 0ZM41.5764 0.00199566C41.5764 0.00199566 37 4.87448 37 12.7044C37 20.5342 45.3888 27.2148 45.3888 27.2148C45.3888 27.2148 46.9831 22.0177 51.4177 17.8192C51.4177 17.8192 40.3045 14.12 43.594 0.975877L41.5764 0.00199566ZM66.5 14.237C64.0418 14.237 61.0182 15.0373 61.0182 15.0373L63.7104 32.8964L58.0953 39.5919C58.0953 39.5919 48.9933 38.2606 43.5124 35.9278C43.5124 35.9278 41.8193 39.2706 42.1515 43.8686C42.1515 43.8686 50.0268 46.4457 60.1527 47.3131H60.0293C60.0293 47.3131 62.4257 51.0207 64.4744 56.4412C64.4744 56.4412 65.6116 57 66.5 57C67.3883 57 68.5256 56.4412 68.5256 56.4412C70.5743 51.0207 72.9707 47.3131 72.9707 47.3131H72.8473C82.9732 46.4457 90.8485 43.8686 90.8485 43.8686C91.1807 39.2706 89.4876 35.9278 89.4876 35.9278C84.0067 38.2606 74.9047 39.5919 74.9047 39.5919L69.2896 32.8964L71.9818 15.0373C71.9818 15.0373 68.9582 14.237 66.5 14.237ZM58.3958 17.8192C47.2333 22.3672 46.0872 33.9122 46.0872 33.9122C51.8177 36.2112 57.1243 37.1352 57.1243 37.1352L61.4341 31.6871L58.3958 17.8192ZM74.6042 17.8192L71.5659 31.6871L75.8757 37.1352C75.8757 37.1352 81.1823 36.2112 86.9128 33.9122C86.9128 33.9122 85.7667 22.3672 74.6042 17.8192Z" fill="white"/>
<path d="M102.027 34.012C101.881 33.9916 101.734 33.9957 101.591 34.0365C101.306 34.1141 101.069 34.3101 100.935 34.5796C100.89 34.6695 96.1487 44.046 85.1415 57.0489C85.0029 57.2122 84.8439 57.396 84.6645 57.592L89.7033 63.7423C90.9834 63.0684 91.3626 63.3747 91.3666 63.3829C95.5861 67.3524 96.4259 68.1855 96.434 68.1936C96.6297 68.3897 96.8947 68.4999 97.1719 68.4999H97.176C97.4532 68.4999 97.7182 68.3897 97.9139 68.1896C109.215 56.7385 116.765 44.7361 116.842 44.6177C117.144 44.1317 117.001 43.4906 116.516 43.1802L102.427 34.1631C102.305 34.0855 102.17 34.0324 102.027 34.012ZM102.912 40.2725C103.776 40.2725 104.477 40.9749 104.477 41.8407C104.477 42.7065 103.776 43.4089 102.912 43.4089C102.048 43.4089 101.346 42.7065 101.346 41.8407C101.346 40.9749 102.048 40.2725 102.912 40.2725ZM83.2254 59.1357C80.1923 62.3007 75.1983 67.1278 72.2223 70.0028C71.0156 71.1708 70.0943 72.061 69.6907 72.4653C68.9732 73.1841 68.806 74.1438 69.23 75.1647C70.1676 77.4313 74.277 80 75.2554 80C76.5559 80 77.0329 78.8279 77.5873 77.4721C78.2722 75.7814 79.3158 73.229 82.2552 70.2846L82.7199 69.8108C83.4089 69.1125 84.6319 67.871 85.3657 67.1645C86.389 66.1844 87.2369 65.4534 87.9503 64.9062L83.2254 59.1357Z" fill="white"/>
<path d="M30.9727 34.012C31.1195 33.9916 31.2662 33.9957 31.4089 34.0365C31.6943 34.1141 31.9307 34.3101 32.0653 34.5796C32.1101 34.6695 36.8513 44.046 47.8585 57.0489C47.9971 57.2122 48.1561 57.396 48.3355 57.592L43.2967 63.7423C42.0166 63.0684 41.6374 63.3747 41.6334 63.3829C37.4139 67.3524 36.5741 68.1855 36.566 68.1936C36.3703 68.3897 36.1053 68.4999 35.8281 68.4999H35.824C35.5468 68.4999 35.2818 68.3897 35.0861 68.1896C23.7854 56.7385 16.2353 44.7361 16.1578 44.6177C15.8562 44.1317 15.9988 43.4906 16.484 43.1802L30.5732 34.1631C30.6955 34.0855 30.83 34.0324 30.9727 34.012ZM30.088 40.2725C29.2238 40.2725 28.5226 40.9749 28.5226 41.8407C28.5226 42.7065 29.2238 43.4089 30.088 43.4089C30.9523 43.4089 31.6535 42.7065 31.6535 41.8407C31.6535 40.9749 30.9523 40.2725 30.088 40.2725ZM49.7746 59.1357C52.8077 62.3007 57.8017 67.1278 60.7777 70.0028C61.9844 71.1708 62.9057 72.061 63.3093 72.4653C64.0268 73.1841 64.194 74.1438 63.77 75.1647C62.8324 77.4313 58.723 80 57.7446 80C56.4441 80 55.9671 78.8279 55.4127 77.4721C54.7278 75.7814 53.6842 73.229 50.7448 70.2846L50.2801 69.8108C49.5911 69.1125 48.3681 67.871 47.6343 67.1645C46.611 66.1844 45.7631 65.4534 45.0497 64.9062L49.7746 59.1357Z" fill="white"/>
<line x1="35" y1="84.5" x2="98" y2="84.5" stroke="white"/>
<path d="M13.3556 94.466L9.39361 103.552L7.93761 104.266L3.84961 94.41L2.44961 93.556L2.72961 92.996H6.98561V93.43L5.66961 94.452L9.04361 102.586L12.5996 94.396L10.1356 93.556L10.4156 92.996H14.6716V93.43L13.3556 94.466ZM18.6483 104H14.7423V103.566L15.9883 102.586V98.498L14.7423 97.63V97.196L17.1363 96.3H17.6683V102.95L18.9283 103.44L18.6483 104ZM16.7723 92.1C17.0523 92.1 17.2809 92.2027 17.4583 92.408C17.6449 92.6133 17.7383 92.87 17.7383 93.178C17.7383 93.3927 17.6729 93.598 17.5423 93.794C17.4116 93.9807 17.2483 94.13 17.0523 94.242C16.8563 94.354 16.6649 94.41 16.4783 94.41C16.1983 94.41 15.9649 94.3073 15.7783 94.102C15.6009 93.8967 15.5123 93.64 15.5123 93.332C15.5123 93.1173 15.5776 92.9167 15.7083 92.73C15.8389 92.534 16.0023 92.38 16.1983 92.268C16.3943 92.156 16.5856 92.1 16.7723 92.1ZM23.3897 103.44L23.1097 104H19.2037V103.566L20.4497 102.586V93.976L19.2037 93.108V92.674L21.5977 91.778H22.1297V102.95L23.3897 103.44ZM27.8697 104H25.5037L22.8717 100.304L25.4897 98.106L24.1457 97.126L24.4257 96.566H27.7717V97L24.5237 99.73L26.8897 102.95L28.1497 103.44L27.8697 104ZM32.342 104H28.436V103.566L29.682 102.586V98.498L28.436 97.63V97.196L30.83 96.3H31.362V102.95L32.622 103.44L32.342 104ZM30.466 92.1C30.746 92.1 30.9747 92.2027 31.152 92.408C31.3387 92.6133 31.432 92.87 31.432 93.178C31.432 93.3927 31.3667 93.598 31.236 93.794C31.1053 93.9807 30.942 94.13 30.746 94.242C30.55 94.354 30.3587 94.41 30.172 94.41C29.892 94.41 29.6587 94.3073 29.472 94.102C29.2947 93.8967 29.206 93.64 29.206 93.332C29.206 93.1173 29.2713 92.9167 29.402 92.73C29.5327 92.534 29.696 92.38 29.892 92.268C30.088 92.156 30.2793 92.1 30.466 92.1ZM41.8434 104.014H39.1834V99.296C39.1834 98.7827 39.1041 98.4233 38.9454 98.218C38.7868 98.0127 38.5021 97.91 38.0914 97.91C37.7834 97.91 37.4754 97.966 37.1674 98.078C36.8688 98.19 36.5141 98.4047 36.1034 98.722V102.964L37.3634 103.454L37.0834 104.014H33.1774V103.58L34.4234 102.6V98.638L33.1774 97.91V97.476L35.5714 96.3L36.0334 98.12L38.0214 96.538C38.2174 96.4633 38.4741 96.426 38.7914 96.426C39.4261 96.426 39.9301 96.622 40.3034 97.014C40.6768 97.3967 40.8634 97.9193 40.8634 98.582V102.95L42.1234 103.454L41.8434 104.014ZM48.6719 97.532C48.9333 97.9053 49.0639 98.3253 49.0639 98.792C49.0639 99.2027 48.9473 99.6087 48.7139 100.01C48.4806 100.402 48.1679 100.747 47.7759 101.046C47.3839 101.345 46.9546 101.569 46.4879 101.718C46.2359 101.97 46.1099 102.236 46.1099 102.516C46.1099 102.675 46.2313 102.824 46.4739 102.964C46.7259 103.095 47.0946 103.253 47.5799 103.44C48.2426 103.701 48.7513 103.939 49.1059 104.154C49.4699 104.378 49.6519 104.649 49.6519 104.966C49.6519 105.246 49.4699 105.605 49.1059 106.044C48.7513 106.483 48.3079 106.865 47.7759 107.192C47.2439 107.519 46.7306 107.682 46.2359 107.682C45.7133 107.682 45.0926 107.593 44.3739 107.416C43.6646 107.239 43.0719 107.061 42.5959 106.884V104.728H43.1279C43.6506 105.372 44.1826 105.862 44.7239 106.198C45.2653 106.534 45.8766 106.702 46.5579 106.702C46.8099 106.702 47.0386 106.651 47.2439 106.548C47.4586 106.445 47.6219 106.315 47.7339 106.156C47.8553 106.007 47.9159 105.862 47.9159 105.722C47.9159 105.47 47.7713 105.251 47.4819 105.064C47.1926 104.887 46.7399 104.667 46.1239 104.406C45.5359 104.163 45.0973 103.953 44.8079 103.776C44.5279 103.599 44.3879 103.393 44.3879 103.16C44.3879 102.936 44.5373 102.707 44.8359 102.474C45.1346 102.241 45.4893 102.035 45.8999 101.858C45.7506 101.886 45.5966 101.9 45.4379 101.9C44.9433 101.9 44.4906 101.793 44.0799 101.578C43.6693 101.354 43.3426 101.06 43.0999 100.696C42.8666 100.332 42.7499 99.9353 42.7499 99.506C42.7499 98.9927 42.9273 98.498 43.2819 98.022C43.6366 97.546 44.0939 97.1633 44.6539 96.874C45.2233 96.5753 45.8019 96.426 46.3899 96.426C47.0433 96.426 47.6173 96.6127 48.1119 96.986H50.3099L50.3239 97.532H48.6719ZM46.2499 100.696C46.6699 100.696 46.9873 100.593 47.2019 100.388C47.4259 100.173 47.5379 99.8607 47.5379 99.45C47.5379 98.89 47.3559 98.4373 46.9919 98.092C46.6373 97.7467 46.1659 97.574 45.5779 97.574C45.1673 97.574 44.8499 97.6767 44.6259 97.882C44.4113 98.078 44.3039 98.3813 44.3039 98.792C44.3039 99.3613 44.4813 99.8233 44.8359 100.178C45.1999 100.523 45.6713 100.696 46.2499 100.696ZM62.4612 104H59.8012V102.992L58.4992 104.028C58.2005 104.103 57.8412 104.14 57.4212 104.14C56.8052 104.14 56.2498 103.981 55.7552 103.664C55.2698 103.337 54.8872 102.899 54.6072 102.348C54.3365 101.797 54.2012 101.191 54.2012 100.528C54.2012 99.8093 54.4205 99.1373 54.8592 98.512C55.2978 97.8773 55.8438 97.3733 56.4972 97C57.1598 96.6173 57.7992 96.426 58.4152 96.426C58.9285 96.426 59.3952 96.5707 59.8152 96.86V93.976L58.5692 93.108V92.674L60.9632 91.778H61.4952V102.95L62.7412 103.44L62.4612 104ZM58.1352 102.95C58.4152 102.95 58.6812 102.913 58.9332 102.838C59.1945 102.754 59.4838 102.6 59.8012 102.376V99.184C59.7452 98.7173 59.5258 98.3393 59.1432 98.05C58.7698 97.7513 58.2565 97.602 57.6032 97.602C56.5485 97.602 56.0212 98.3533 56.0212 99.856C56.0212 100.733 56.2032 101.471 56.5672 102.068C56.9312 102.656 57.4538 102.95 58.1352 102.95ZM70.4703 104H67.8103V102.782L66.2283 104.028C66.0416 104.103 65.8083 104.14 65.5283 104.14C64.7256 104.14 64.1423 103.939 63.7783 103.538C63.4236 103.137 63.2463 102.656 63.2463 102.096C63.2463 101.76 63.3676 101.429 63.6103 101.102C63.8529 100.775 64.1983 100.467 64.6463 100.178H67.8103V99.282C67.8103 98.6753 67.6469 98.246 67.3203 97.994C67.0029 97.742 66.5643 97.616 66.0042 97.616C65.4256 97.616 64.7163 97.966 63.8763 98.666L63.4563 98.134L65.4723 96.538C65.8456 96.4633 66.2936 96.426 66.8163 96.426C67.6656 96.426 68.3236 96.636 68.7903 97.056C69.2569 97.4667 69.4903 98.0687 69.4903 98.862V102.95L70.7503 103.44L70.4703 104ZM65.9763 102.95C66.5456 102.95 67.1569 102.689 67.8103 102.166V100.752H65.3323C65.2109 100.901 65.1223 101.051 65.0663 101.2C65.0196 101.349 64.9963 101.513 64.9963 101.69C64.9963 102.035 65.0849 102.334 65.2623 102.586C65.4396 102.829 65.6776 102.95 65.9763 102.95ZM75.6796 102.488C75.6796 102.227 75.5349 101.989 75.2456 101.774C74.9562 101.55 74.5129 101.284 73.9156 100.976C73.4302 100.724 73.0382 100.505 72.7396 100.318C72.4409 100.131 72.1842 99.9167 71.9696 99.674C71.7642 99.422 71.6616 99.1513 71.6616 98.862C71.6616 98.526 71.8016 98.1667 72.0816 97.784C72.3616 97.4013 72.7069 97.0793 73.1176 96.818C73.5282 96.5567 73.9109 96.426 74.2656 96.426C74.6949 96.426 75.1896 96.482 75.7496 96.594C76.3189 96.6967 76.7296 96.8133 76.9816 96.944V99.1H76.4496C76.1509 98.5213 75.8056 98.0733 75.4136 97.756C75.0216 97.4293 74.6202 97.266 74.2096 97.266C73.9202 97.266 73.6869 97.3453 73.5096 97.504C73.3322 97.6533 73.2436 97.8447 73.2436 98.078C73.2436 98.3673 73.3929 98.6287 73.6916 98.862C73.9996 99.086 74.4616 99.352 75.0776 99.66C75.5536 99.9027 75.9362 100.113 76.2256 100.29C76.5149 100.467 76.7576 100.677 76.9536 100.92C77.1589 101.153 77.2616 101.415 77.2616 101.704C77.2616 102.049 77.1122 102.413 76.8136 102.796C76.5242 103.169 76.1649 103.487 75.7356 103.748C75.3156 104.009 74.9282 104.14 74.5736 104.14C74.1162 104.14 73.5702 104.089 72.9356 103.986C72.3102 103.874 71.8622 103.753 71.5916 103.622V101.466H72.1236C72.4502 102.045 72.8376 102.497 73.2856 102.824C73.7336 103.141 74.1862 103.3 74.6436 103.3C74.9516 103.3 75.1989 103.221 75.3856 103.062C75.5816 102.903 75.6796 102.712 75.6796 102.488ZM87.732 92.716C88.2267 92.716 88.796 92.786 89.44 92.926C90.0934 93.066 90.5694 93.2153 90.868 93.374V96.09H90.336C89.4774 94.6247 88.3387 93.892 86.92 93.892C86.304 93.892 85.7394 94.074 85.226 94.438C84.722 94.7927 84.3254 95.292 84.036 95.936C83.7467 96.5707 83.602 97.2847 83.602 98.078C83.602 98.9927 83.742 99.828 84.022 100.584C84.3114 101.34 84.7454 101.947 85.324 102.404C85.912 102.861 86.6354 103.09 87.494 103.09C88.2874 103.09 89.426 102.493 90.91 101.298L91.33 101.97L88.754 103.972C88.4087 104.093 88.0727 104.173 87.746 104.21C87.4287 104.257 87.0834 104.28 86.71 104.28C85.73 104.28 84.862 104.042 84.106 103.566C83.35 103.09 82.762 102.437 82.342 101.606C81.922 100.766 81.712 99.814 81.712 98.75C81.712 97.658 82.0294 96.65 82.664 95.726C83.2987 94.7927 84.0874 94.06 85.03 93.528C85.9727 92.9867 86.8734 92.716 87.732 92.716ZM99.5804 104H96.9204V102.782L95.3384 104.028C95.1517 104.103 94.9184 104.14 94.6384 104.14C93.8357 104.14 93.2524 103.939 92.8884 103.538C92.5337 103.137 92.3564 102.656 92.3564 102.096C92.3564 101.76 92.4777 101.429 92.7204 101.102C92.9631 100.775 93.3084 100.467 93.7564 100.178H96.9204V99.282C96.9204 98.6753 96.7571 98.246 96.4304 97.994C96.1131 97.742 95.6744 97.616 95.1144 97.616C94.5357 97.616 93.8264 97.966 92.9864 98.666L92.5664 98.134L94.5824 96.538C94.9557 96.4633 95.4037 96.426 95.9264 96.426C96.7757 96.426 97.4337 96.636 97.9004 97.056C98.3671 97.4667 98.6004 98.0687 98.6004 98.862V102.95L99.8604 103.44L99.5804 104ZM95.0864 102.95C95.6557 102.95 96.2671 102.689 96.9204 102.166V100.752H94.4424C94.3211 100.901 94.2324 101.051 94.1764 101.2C94.1297 101.349 94.1064 101.513 94.1064 101.69C94.1064 102.035 94.1951 102.334 94.3724 102.586C94.5497 102.829 94.7877 102.95 95.0864 102.95ZM105.336 96.44C105.644 96.44 105.914 96.524 106.148 96.692C106.381 96.86 106.563 97.0933 106.694 97.392L105.77 98.554H105.238C105.2 98.3207 105.13 98.1573 105.028 98.064C104.934 97.9613 104.804 97.91 104.636 97.91C104.43 97.91 104.211 97.966 103.978 98.078C103.754 98.1807 103.497 98.3813 103.208 98.68V102.852L105.168 103.454L104.888 104.014H100.282V103.58L101.528 102.6V98.638L100.282 97.91V97.476L102.676 96.3L103.11 98.022L104.566 96.538C104.762 96.4633 105.018 96.426 105.336 96.426V96.44ZM115.507 104.014H112.847V99.296C112.847 98.7827 112.768 98.4233 112.609 98.218C112.451 98.0127 112.166 97.91 111.755 97.91C111.447 97.91 111.139 97.966 110.831 98.078C110.533 98.19 110.178 98.4047 109.767 98.722V102.964L111.027 103.454L110.747 104.014H106.841V103.58L108.087 102.6V98.638L106.841 97.91V97.476L109.235 96.3L109.697 98.12L111.685 96.538C111.881 96.4633 112.138 96.426 112.455 96.426C113.09 96.426 113.594 96.622 113.967 97.014C114.341 97.3967 114.527 97.9193 114.527 98.582V102.95L115.787 103.454L115.507 104.014ZM120.978 104.028C120.605 104.103 120.157 104.14 119.634 104.14C119.018 104.14 118.463 103.981 117.968 103.664C117.483 103.337 117.1 102.899 116.82 102.348C116.549 101.797 116.414 101.191 116.414 100.528C116.414 99.8093 116.633 99.1373 117.072 98.512C117.511 97.8773 118.057 97.3733 118.71 97C119.373 96.6173 120.012 96.426 120.628 96.426C121.515 96.426 122.201 96.776 122.686 97.476C123.181 98.176 123.428 99.1 123.428 100.248H118.248C118.304 101.041 118.519 101.69 118.892 102.194C119.275 102.698 119.793 102.95 120.446 102.95C121.053 102.95 121.916 102.479 123.036 101.536L123.456 102.068L120.978 104.028ZM119.816 97.602C118.808 97.602 118.281 98.2927 118.234 99.674H121.51C121.426 99.17 121.337 98.7873 121.244 98.526C121.16 98.2553 121.006 98.036 120.782 97.868C120.567 97.6907 120.245 97.602 119.816 97.602ZM129.008 102.488C129.008 102.227 128.863 101.989 128.574 101.774C128.285 101.55 127.841 101.284 127.244 100.976C126.759 100.724 126.367 100.505 126.068 100.318C125.769 100.131 125.513 99.9167 125.298 99.674C125.093 99.422 124.99 99.1513 124.99 98.862C124.99 98.526 125.13 98.1667 125.41 97.784C125.69 97.4013 126.035 97.0793 126.446 96.818C126.857 96.5567 127.239 96.426 127.594 96.426C128.023 96.426 128.518 96.482 129.078 96.594C129.647 96.6967 130.058 96.8133 130.31 96.944V99.1H129.778C129.479 98.5213 129.134 98.0733 128.742 97.756C128.35 97.4293 127.949 97.266 127.538 97.266C127.249 97.266 127.015 97.3453 126.838 97.504C126.661 97.6533 126.572 97.8447 126.572 98.078C126.572 98.3673 126.721 98.6287 127.02 98.862C127.328 99.086 127.79 99.352 128.406 99.66C128.882 99.9027 129.265 100.113 129.554 100.29C129.843 100.467 130.086 100.677 130.282 100.92C130.487 101.153 130.59 101.415 130.59 101.704C130.59 102.049 130.441 102.413 130.142 102.796C129.853 103.169 129.493 103.487 129.064 103.748C128.644 104.009 128.257 104.14 127.902 104.14C127.445 104.14 126.899 104.089 126.264 103.986C125.639 103.874 125.191 103.753 124.92 103.622V101.466H125.452C125.779 102.045 126.166 102.497 126.614 102.824C127.062 103.141 127.515 103.3 127.972 103.3C128.28 103.3 128.527 103.221 128.714 103.062C128.91 102.903 129.008 102.712 129.008 102.488Z" fill="white"/>
</svg>
