<svg width="29" height="29" viewBox="0 0 29 29" fill="none" xmlns="http://www.w3.org/2000/svg">
<g clip-path="url(#clip0_54_126)">
<path d="M12.4016 23.944C12.0817 23.6198 11.7879 23.271 11.5227 22.9008L11.3848 23.0388C11.2132 23.2005 11.0064 23.3201 10.7807 23.3881C10.555 23.4561 10.3165 23.4706 10.0842 23.4305C9.70209 23.3787 9.31337 23.4493 8.97394 23.6323C8.63451 23.8153 8.36186 24.1012 8.19518 24.449C8.04265 24.755 7.98646 25.1 8.03402 25.4386C8.07788 25.799 8.22888 26.1379 8.46749 26.4116C8.70609 26.6852 9.02133 26.8809 9.37239 26.9734C9.45251 27.2818 9.61343 27.5633 9.83857 27.7889C10.092 28.0424 10.415 28.215 10.7665 28.285C11.1181 28.3549 11.4825 28.319 11.8137 28.1818C12.1449 28.0447 12.4279 27.8124 12.6271 27.5143C12.8263 27.2163 12.9326 26.8659 12.9326 26.5074C12.8702 26.2377 12.8719 25.9572 12.9374 25.6883C13.0029 25.4194 13.1305 25.1695 13.3099 24.9588L13.4455 24.8231C13.075 24.558 12.7259 24.264 12.4016 23.944Z" fill="white" fill-opacity="0.6"/>
<path d="M18.8102 17.5356C16.9556 15.6822 15.0577 12.7957 15.2645 10.1875L13.0426 12.4094C11.5991 13.8543 10.7885 15.8133 10.7891 17.8556C10.7896 19.898 11.6011 21.8566 13.0453 23.3007C14.4895 24.7449 16.4481 25.5564 18.4904 25.5569C20.5328 25.5573 22.4917 24.7467 23.9366 23.3032L26.15 21.0896C23.5781 21.2916 20.674 19.4005 18.8102 17.5356Z" fill="white" fill-opacity="0.6"/>
<path d="M25.2182 11.1277C22.164 8.07312 18.5045 6.94675 16.8876 8.56452C14.8303 10.6212 17.342 14.7866 19.451 16.8949C21.5525 18.997 25.7211 21.5184 27.7812 19.4583C29.8409 17.3986 27.3223 13.2318 25.2182 11.1277ZM26.3396 17.6961C26.0742 17.9616 25.5003 17.8181 25.058 17.3757C24.6156 16.9333 24.4721 16.3595 24.7375 16.0941C25.003 15.8286 25.5768 15.9721 26.0192 16.4145C26.4616 16.8569 26.605 17.4307 26.3396 17.6961Z" fill="white" fill-opacity="0.6"/>
<path d="M23.1094 7.32103C23.1098 6.44873 22.9384 5.58489 22.6048 4.7789C22.2712 3.97291 21.782 3.24058 21.1651 2.62378C20.5483 2.00698 19.816 1.5178 19.01 1.18422C18.204 0.850641 17.3401 0.679198 16.4678 0.679694C15.2179 0.678139 13.983 0.952196 12.8512 1.48235C11.7193 2.0125 10.7182 2.7857 9.91919 3.7469C8.61183 5.32244 6.83443 6.43809 4.8472 6.9305L3.38959 7.2949C2.55036 7.50375 1.80523 7.98759 1.27302 8.66926C0.740809 9.35092 0.452168 10.1912 0.453127 11.056V14.681C0.453127 17.5118 3.06988 18.3253 3.74182 18.9228C5.6528 20.1622 7.83157 20.9285 10.0977 21.1581C12.3638 21.3877 14.652 21.0741 16.7727 20.2433C18.5561 19.5504 20.1012 18.3567 21.2217 16.806C22.3423 15.2552 22.9906 13.4135 23.0885 11.5028C23.0967 11.4685 23.1094 7.3651 23.1094 7.32103ZM3.60951 8.17418L5.06713 7.80977C7.24096 7.27111 9.18523 6.05063 10.6153 4.32706C11.3293 3.46807 12.224 2.77708 13.2356 2.30329C14.2472 1.82951 15.3508 1.58458 16.4678 1.58594C17.2211 1.58548 17.9671 1.73351 18.6631 2.02156C19.3592 2.30961 19.9916 2.73203 20.5242 3.26467C21.0569 3.79731 21.4794 4.42972 21.7674 5.12574C22.0555 5.82177 22.2036 6.56775 22.2031 7.32103C22.2103 9.14747 21.6635 10.9332 20.6349 12.4424C19.6063 13.9517 18.1443 15.1137 16.4417 15.7749C14.4552 16.5531 12.3118 16.8467 10.1892 16.6316C8.06653 16.4165 6.02568 15.6988 4.23566 14.5378C3.51308 13.9167 1.35938 13.2946 1.35938 11.056C1.35864 10.3933 1.57982 9.74949 1.98764 9.22718C2.39547 8.70486 2.96645 8.33416 3.60951 8.17418ZM16.4417 19.3999C14.4552 20.1782 12.3118 20.4719 10.1891 20.2568C8.06645 20.0416 6.0256 19.3237 4.23566 18.1626C3.50594 17.5354 1.35938 16.9196 1.35938 14.681V13.5383C1.97183 14.2696 2.44471 14.4074 3.74182 15.2978C5.6528 16.5372 7.83157 17.3035 10.0977 17.5331C12.3638 17.7627 14.652 17.4491 16.7727 16.6183C19.1632 15.6875 21.1011 13.8682 22.1808 11.5411C22.0753 13.2625 21.4786 14.9177 20.4615 16.3105C19.4444 17.7033 18.0494 18.7754 16.4417 19.3999Z" fill="white"/>
<path d="M6.57407 10.5854L16.5428 4.69477C16.5946 4.6648 16.64 4.62485 16.6763 4.57724C16.7126 4.52964 16.7391 4.47531 16.7542 4.4174C16.7694 4.3595 16.773 4.29916 16.7647 4.23987C16.7564 4.18059 16.7365 4.12353 16.706 4.072C16.6755 4.02046 16.6352 3.97547 16.5872 3.93963C16.5393 3.90379 16.4847 3.8778 16.4267 3.86317C16.3686 3.84854 16.3083 3.84555 16.2491 3.85439C16.1898 3.86322 16.133 3.8837 16.0817 3.91464L6.11298 9.80526C6.01073 9.86699 5.93698 9.9666 5.90779 10.0824C5.87859 10.1982 5.89631 10.3209 5.95708 10.4237C6.01786 10.5266 6.11677 10.6012 6.23232 10.6315C6.34786 10.6618 6.47068 10.6452 6.57407 10.5854Z" fill="white"/>
<path d="M6.40955 13.6024C6.472 13.705 6.57263 13.7787 6.68936 13.8073C6.80609 13.8358 6.92938 13.8169 7.03215 13.7546L19.7194 6.05147C19.7703 6.02061 19.8146 5.98003 19.8498 5.93206C19.885 5.88408 19.9104 5.82964 19.9246 5.77185C19.9387 5.71405 19.9413 5.65403 19.9323 5.59522C19.9233 5.53641 19.9027 5.47995 19.8719 5.42908C19.841 5.3782 19.8004 5.3339 19.7525 5.2987C19.7045 5.26351 19.6501 5.2381 19.5923 5.22395C19.5345 5.20979 19.4744 5.20716 19.4156 5.21619C19.3568 5.22523 19.3004 5.24577 19.2495 5.27662L6.56177 12.9797C6.45902 13.0421 6.38526 13.1428 6.35672 13.2595C6.32817 13.3763 6.34718 13.4996 6.40955 13.6024Z" fill="white"/>
<path d="M19.2422 8.45275L10.6329 13.8902C10.5315 13.9546 10.4597 14.0565 10.4334 14.1736C10.4071 14.2907 10.4283 14.4136 10.4924 14.5151C10.5565 14.6166 10.6583 14.6885 10.7754 14.715C10.8925 14.7416 11.0153 14.7206 11.117 14.6567L19.7263 9.21916C19.7768 9.18743 19.8205 9.14607 19.8549 9.09743C19.8893 9.0488 19.9138 8.99385 19.927 8.93573C19.9402 8.87761 19.9418 8.81747 19.9317 8.75874C19.9216 8.70001 19.9 8.64385 19.8682 8.59346C19.8364 8.54308 19.7949 8.49947 19.7462 8.46512C19.6975 8.43078 19.6425 8.40637 19.5844 8.3933C19.5263 8.38023 19.4661 8.37875 19.4074 8.38895C19.3487 8.39915 19.2926 8.42083 19.2422 8.45275Z" fill="white"/>
</g>
<defs>
<clipPath id="clip0_54_126">
<rect width="29" height="29" fill="white"/>
</clipPath>
</defs>
</svg>
