<svg width="26" height="26" viewBox="0 0 26 26" fill="none" xmlns="http://www.w3.org/2000/svg">
<path fill-rule="evenodd" clip-rule="evenodd" d="M13.0002 0.458344C6.07833 0.458344 0.458496 6.07818 0.458496 13C0.458496 19.9218 6.07833 25.5417 13.0002 25.5417C19.922 25.5417 25.5418 19.9218 25.5418 13C25.5418 6.07818 19.922 0.458344 13.0002 0.458344ZM13.0002 2.20834C18.956 2.20834 23.7918 7.04418 23.7918 13C23.7918 18.9558 18.956 23.7917 13.0002 23.7917C7.04433 23.7917 2.2085 18.9558 2.2085 13C2.2085 7.04418 7.04433 2.20834 13.0002 2.20834ZM13.0002 6.00001C12.6134 6.00001 12.2425 6.15366 11.969 6.42715C11.6955 6.70064 11.5418 7.07157 11.5418 7.45834C11.5418 7.84512 11.6955 8.21605 11.969 8.48954C12.2425 8.76303 12.6134 8.91668 13.0002 8.91668C13.3869 8.91668 13.7579 8.76303 14.0314 8.48954C14.3049 8.21605 14.4585 7.84512 14.4585 7.45834C14.4585 7.07157 14.3049 6.70064 14.0314 6.42715C13.7579 6.15366 13.3869 6.00001 13.0002 6.00001ZM10.6668 10.375C10.1838 10.375 9.79183 10.767 9.79183 11.25C9.79183 11.733 10.1838 12.125 10.6668 12.125H12.1252V18.5417H10.6668C10.1838 18.5417 9.79183 18.9337 9.79183 19.4167C9.79183 19.8997 10.1838 20.2917 10.6668 20.2917H15.3335C15.8165 20.2917 16.2085 19.8997 16.2085 19.4167C16.2085 18.9337 15.8165 18.5417 15.3335 18.5417H13.8752V11.25C13.8752 10.767 13.4832 10.375 13.0002 10.375H10.6668Z" fill="white"/>
</svg>
